<svg width="16" height="18" viewBox="0 0 16 18" fill="none" xmlns="http://www.w3.org/2000/svg">
<path d="M13.0001 12.4C12.3668 12.4 11.8001 12.65 11.3668 13.0417L5.42512 9.58334C5.46679 9.39167 5.50012 9.20001 5.50012 9.00001C5.50012 8.80001 5.46679 8.60834 5.42512 8.41667L11.3001 4.99167C11.7501 5.40834 12.3418 5.66667 13.0001 5.66667C14.3835 5.66667 15.5001 4.55001 15.5001 3.16667C15.5001 1.78334 14.3835 0.666672 13.0001 0.666672C11.6168 0.666672 10.5001 1.78334 10.5001 3.16667C10.5001 3.36667 10.5335 3.55834 10.5751 3.75001L4.70012 7.17501C4.25012 6.75834 3.65846 6.50001 3.00012 6.50001C1.61679 6.50001 0.500122 7.61667 0.500122 9.00001C0.500122 10.3833 1.61679 11.5 3.00012 11.5C3.65846 11.5 4.25012 11.2417 4.70012 10.825L10.6335 14.2917C10.5918 14.4667 10.5668 14.65 10.5668 14.8333C10.5668 16.175 11.6585 17.2667 13.0001 17.2667C14.3418 17.2667 15.4335 16.175 15.4335 14.8333C15.4335 13.4917 14.3418 12.4 13.0001 12.4Z" fill="white"/>
</svg>